<?xml version="1.0" encoding="iso-8859-1"?>
<!-- Generator: Adobe Illustrator 19.0.0, SVG Export Plug-In . SVG Version: 6.00 Build 0)  -->
<svg version="1.1" id="Capa_1" xmlns="http://www.w3.org/2000/svg" xmlns:xlink="http://www.w3.org/1999/xlink" x="0px" y="0px"
	 viewBox="0 0 411.133 411.133" style="enable-background:new 0 0 411.133 411.133;" xml:space="preserve">
<path id="XMLID_157_" d="M146.643,248.047L141.495,9.784C141.377,4.347,136.936,0,131.497,0h-26.536
	c-4.415,0-8.307,2.895-9.577,7.123L22.048,251.251c-0.28,0.934-0.423,1.902-0.423,2.877v98.113c0,2.652,1.054,5.195,2.929,7.071
	l48.891,48.892c1.876,1.875,4.419,2.929,7.071,2.929h48.892c1.553,0,3.084-0.361,4.473-1.056l48.891-24.446
	c3.388-1.694,5.527-5.156,5.527-8.944V301.99c0-2.327-0.812-4.582-2.296-6.375L146.643,248.047z M168.298,370.506l-41.251,20.627
	H84.658l-43.033-43.034v-92.501L112.398,20h9.313l5.011,231.957c0.049,2.253,0.857,4.423,2.294,6.159l39.282,47.475V370.506z
	 M389.085,251.251L315.747,7.123C314.477,2.895,310.585,0,306.17,0h-26.534c-5.438,0-9.88,4.347-9.998,9.784l-5.147,238.263
	l-39.361,47.568c-1.484,1.793-2.296,4.048-2.296,6.375v74.696c0,3.788,2.14,7.25,5.528,8.944l48.892,24.446
	c1.389,0.694,2.92,1.056,4.473,1.056h48.89c2.652,0,5.195-1.054,7.071-2.929l48.893-48.892c1.875-1.876,2.929-4.419,2.929-7.071
	v-98.113C389.508,253.153,389.365,252.185,389.085,251.251z M369.508,348.099l-43.035,43.034h-42.387l-41.253-20.627v-64.915
	l39.284-47.475c1.437-1.735,2.245-3.906,2.294-6.159L289.422,20h9.311l70.775,235.598V348.099z"/>
<g>
</g>
<g>
</g>
<g>
</g>
<g>
</g>
<g>
</g>
<g>
</g>
<g>
</g>
<g>
</g>
<g>
</g>
<g>
</g>
<g>
</g>
<g>
</g>
<g>
</g>
<g>
</g>
<g>
</g>
</svg>
